SplineFontDB: 3.2
FontName: InupiaqNumbers
FullName: InupiaqNumbers
FamilyName: InupiaqNumbers
Weight: Regular
Copyright: Copyright (c) 2020, Nathan\n\nPermission is hereby granted, free of charge, to any person obtaining a copy of this software and associated documentation files (the "Software"), to deal in the Software without restriction, including without limitation the rights to use, copy, modify, merge, publish, distribute, sublicense, and/or sell copies of the Software, and to permit persons to whom the Software is furnished to do so, subject to the following conditions:\n\nThe above copyright notice and this permission notice shall be included in all copies or substantial portions of the Software.\n\nTHE SOFTWARE IS PROVIDED "AS IS", WITHOUT WARRANTY OF ANY KIND, EXPRESS OR IMPLIED, INCLUDING BUT NOT LIMITED TO THE WARRANTIES OF MERCHANTABILITY, FITNESS FOR A PARTICULAR PURPOSE AND NONINFRINGEMENT. IN NO EVENT SHALL THE AUTHORS OR COPYRIGHT HOLDERS BE LIABLE FOR ANY CLAIM, DAMAGES OR OTHER LIABILITY, WHETHER IN AN ACTION OF CONTRACT, TORT OR OTHERWISE, ARISING FROM, OUT OF OR IN CONNECTION WITH THE SOFTWARE OR THE USE OR OTHER DEALINGS IN THE SOFTWARE.
UComments: "2020-1-1: Created with FontForge (http://fontforge.org)"
Version: 002.000
ItalicAngle: 0
UnderlinePosition: -120
UnderlineWidth: 60
Ascent: 1000
Descent: 205
InvalidEm: 0
LayerCount: 2
Layer: 0 0 "Back" 1
Layer: 1 0 "Fore" 0
XUID: [1021 498 -2101142793 9498728]
OS2Version: 0
OS2_WeightWidthSlopeOnly: 0
OS2_UseTypoMetrics: 1
CreationTime: 1577860449
ModificationTime: 1578143076
OS2TypoAscent: 0
OS2TypoAOffset: 1
OS2TypoDescent: 0
OS2TypoDOffset: 1
OS2TypoLinegap: 0
OS2WinAscent: 0
OS2WinAOffset: 1
OS2WinDescent: 0
OS2WinDOffset: 1
HheadAscent: 0
HheadAOffset: 1
HheadDescent: 0
HheadDOffset: 1
OS2Vendor: 'PfEd'
MarkAttachClasses: 1
DEI: 91125
Encoding: UnicodeFull
UnicodeInterp: none
NameList: AGL For New Fonts
DisplaySize: -48
AntiAlias: 1
FitToEm: 0
WinInfo: 58558 38 14
BeginPrivate: 0
EndPrivate

StartChar: uniE5A0
Encoding: 58784 58784 1
Width: 700
VWidth: 1024
Flags: HW
HStem: 100 0 600 0 700 0 800 0 900 0
VStem: 100 0 225 0 267 0 350 0 433 0 475 0 600 0
LayerCount: 2
Fore
SplineSet
50.009804473 900 m 4
 50.009804473 912.79938404 54.8880899622 925.598768081 64.6446609407 935.355339059 c 4
 74.4012319191 945.111910038 87.2006159596 949.990195527 100 949.990195527 c 4
 112.79938404 949.990195527 125.598768081 945.111910038 135.355339059 935.355339059 c 4
 138.095759478 932.614918641 140.451315988 929.634440741 142.422008591 926.481332577 c 6
 642.422008591 126.481332577 l 6
 647.467466548 118.408599845 649.990195527 109.204299923 649.990195527 100 c 4
 649.990195527 87.2006159596 645.111910038 74.4012319191 635.355339059 64.6446609407 c 4
 625.598768081 54.8880899622 612.79938404 50.009804473 600 50.009804473 c 4
 587.20061596 50.009804473 574.401231919 54.8880899622 564.644660941 64.6446609407 c 4
 561.904240522 67.3850813591 559.548684012 70.3655592586 557.577991409 73.5186674227 c 6
 57.5779914091 873.518667423 l 6
 52.5325334517 881.591400155 50.009804473 890.795700077 50.009804473 900 c 4
EndSplineSet
EndChar

StartChar: uniE5A1
Encoding: 58785 58785 2
Width: 700
VWidth: 1024
Flags: HW
HStem: 100 0 600 0 700 0 800 0 900 0
VStem: 100 0 225 0 267 0 350 0 433 0 475 0 600 0
LayerCount: 2
Fore
SplineSet
50.009804473 900 m 4
 50.009804473 912.79938404 54.8880899622 925.598768081 64.6446609407 935.355339059 c 4
 74.4012319191 945.111910038 87.2006159596 949.990195527 100 949.990195527 c 4
 112.79938404 949.990195527 125.598768081 945.111910038 135.355339059 935.355339059 c 4
 141.260291982 929.450386137 145.378322578 922.430846829 147.709430848 914.971300364 c 6
 350 267.641479077 l 5
 552.290569152 914.971300364 l 6
 554.621677422 922.430846829 558.739708018 929.450386137 564.644660941 935.355339059 c 4
 574.401231919 945.111910038 587.20061596 949.990195527 600 949.990195527 c 4
 612.79938404 949.990195527 625.598768081 945.111910038 635.355339059 935.355339059 c 4
 645.111910038 925.598768081 649.990195527 912.79938404 649.990195527 900 c 4
 649.990195527 894.947165476 649.229940634 889.894330951 647.709430848 885.028699636 c 6
 397.709430848 85.0286996359 l 6
 395.378322578 77.5691531713 391.260291982 70.5496138629 385.355339059 64.6446609407 c 4
 375.598768081 54.8880899622 362.79938404 50.009804473 350 50.009804473 c 4
 337.20061596 50.009804473 324.401231919 54.8880899622 314.644660941 64.6446609407 c 4
 308.739708018 70.5496138629 304.621677422 77.5691531713 302.290569152 85.0286996359 c 6
 52.2905691521 885.028699636 l 6
 50.770059366 889.894330951 50.009804473 894.947165476 50.009804473 900 c 4
EndSplineSet
EndChar

StartChar: uniE5A2
Encoding: 58786 58786 3
Width: 700
VWidth: 1024
Flags: HW
HStem: 100 0 600 0 700 0 800 0 900 0
VStem: 100 0 225 0 267 0 350 0 433 0 475 0 600 0
LayerCount: 2
Fore
SplineSet
50.009804473 900 m 4
 50.009804473 912.79938404 54.8880899622 925.598768081 64.6446609407 935.355339059 c 4
 74.4012319191 945.111910038 87.2006159596 949.990195527 100 949.990195527 c 4
 112.79938404 949.990195527 125.598768081 945.111910038 135.355339059 935.355339059 c 4
 142.486048487 928.224629631 147.010974743 919.468572304 148.930117827 910.275072501 c 6
 266.853044287 345.374825985 l 5
 384.057648286 910.216291039 l 6
 385.969751373 919.431245673 390.498755591 928.209433709 397.644660941 935.355339059 c 4
 407.401231919 945.111910038 420.20061596 949.990195527 433 949.990195527 c 4
 445.79938404 949.990195527 458.598768081 945.111910038 468.355339059 935.355339059 c 4
 475.486048487 928.224629631 480.010974743 919.468572304 481.930117827 910.275072501 c 6
 648.930117827 110.275072501 l 6
 649.636836294 106.889594817 649.990195527 103.444797408 649.990195527 100 c 4
 649.990195527 87.2006159596 645.111910038 74.4012319191 635.355339059 64.6446609407 c 4
 625.598768081 54.8880899622 612.79938404 50.009804473 600 50.009804473 c 4
 587.20061596 50.009804473 574.401231919 54.8880899622 564.644660941 64.6446609407 c 4
 557.513951513 71.7753703687 552.989025257 80.5314276962 551.069882173 89.7249274986 c 6
 433.146955713 654.625174015 l 5
 315.942351714 89.7837089612 l 6
 314.030248627 80.5687543273 309.501244409 71.7905662906 302.355339059 64.6446609407 c 4
 292.598768081 54.8880899622 279.79938404 50.009804473 267 50.009804473 c 4
 254.20061596 50.009804473 241.401231919 54.8880899622 231.644660941 64.6446609407 c 4
 224.513951513 71.7753703687 219.989025257 80.5314276962 218.069882173 89.7249274986 c 6
 51.069882173 889.724927499 l 6
 50.3631637063 893.110405183 50.009804473 896.555202592 50.009804473 900 c 4
EndSplineSet
EndChar

StartChar: uniE5A3
Encoding: 58787 58787 4
Width: 700
VWidth: 1024
Flags: HW
HStem: 100 0 600 0 700 0 800 0 900 0
VStem: 100 0 225 0 267 0 350 0 433 0 475 0 600 0
LayerCount: 2
Fore
SplineSet
50.009804473 900 m 4
 50.009804473 912.79938404 54.8880899622 925.598768081 64.6446609407 935.355339059 c 4
 74.4012319191 945.111910038 87.2006159596 949.990195527 100 949.990195527 c 4
 112.79938404 949.990195527 125.598768081 945.111910038 135.355339059 935.355339059 c 4
 143.131593382 927.579084736 147.808903854 917.86987531 149.387270473 907.768328946 c 6
 225 423.846859974 l 5
 300.612729527 907.768328946 l 6
 302.191096146 917.86987531 306.868406618 927.579084736 314.644660941 935.355339059 c 4
 324.401231919 945.111910038 337.20061596 949.990195527 350 949.990195527 c 4
 362.79938404 949.990195527 375.598768081 945.111910038 385.355339059 935.355339059 c 4
 393.131593382 927.579084736 397.808903854 917.86987531 399.387270473 907.768328946 c 6
 475 423.846859974 l 5
 550.612729527 907.768328946 l 6
 552.191096146 917.86987531 556.868406618 927.579084736 564.644660941 935.355339059 c 4
 574.401231919 945.111910038 587.20061596 949.990195527 600 949.990195527 c 4
 612.79938404 949.990195527 625.598768081 945.111910038 635.355339059 935.355339059 c 4
 645.111910038 925.598768081 649.990195527 912.79938404 649.990195527 900 c 4
 649.990195527 897.402075642 649.789220509 894.804151284 649.387270473 892.231671054 c 6
 524.387270473 92.2316710542 l 6
 522.808903854 82.1301246899 518.131593382 72.4209152638 510.355339059 64.6446609407 c 4
 500.598768081 54.8880899622 487.79938404 50.009804473 475 50.009804473 c 4
 462.20061596 50.009804473 449.401231919 54.8880899622 439.644660941 64.6446609407 c 4
 431.868406618 72.4209152638 427.191096146 82.1301246899 425.612729527 92.2316710542 c 6
 350 576.153140026 l 5
 274.387270473 92.2316710542 l 6
 272.808903854 82.1301246899 268.131593382 72.4209152638 260.355339059 64.6446609407 c 4
 250.598768081 54.8880899622 237.79938404 50.009804473 225 50.009804473 c 4
 212.20061596 50.009804473 199.401231919 54.8880899622 189.644660941 64.6446609407 c 4
 181.868406618 72.4209152638 177.191096146 82.1301246899 175.612729527 92.2316710542 c 6
 50.6127295269 892.231671054 l 6
 50.210779491 894.804151284 50.009804473 897.402075642 50.009804473 900 c 4
EndSplineSet
EndChar

StartChar: uniE5A4
Encoding: 58788 58788 5
Width: 700
VWidth: 1024
Flags: HW
HStem: 100 0 600 0 700 0 800 0 900 0
VStem: 100 0 225 0 267 0 350 0 433 0 475 0 600 0
LayerCount: 2
Fore
SplineSet
600 949.990195527 m 4
 612.79938404 949.990195527 625.598768081 945.111910038 635.355339059 935.355339059 c 4
 645.111910038 925.598768081 649.990195527 912.79938404 649.990195527 900 c 4
 649.990195527 887.20061596 645.111910038 874.401231919 635.355339059 864.644660941 c 4
 628.118068738 857.407390619 619.206509339 852.854366731 609.862622068 850.985589277 c 6
 109.862622068 750.985589277 l 6
 106.610006055 750.335066074 103.305003027 750.009804473 100 750.009804473 c 4
 87.2006159596 750.009804473 74.4012319191 754.888089962 64.6446609407 764.644660941 c 4
 54.8880899622 774.401231919 50.009804473 787.20061596 50.009804473 800 c 4
 50.009804473 812.79938404 54.8880899622 825.598768081 64.6446609407 835.355339059 c 4
 71.8819312623 842.592609381 80.7934906611 847.145633269 90.1373779322 849.014410723 c 6
 590.137377932 949.014410723 l 6
 593.389993945 949.664933926 596.694996973 949.990195527 600 949.990195527 c 4
EndSplineSet
EndChar

StartChar: uniE5A5
Encoding: 58789 58789 7
Width: 700
VWidth: 1024
Flags: HW
HStem: 100 0 600 0 700 0 800 0 900 0
VStem: 100 0 225 0 267 0 350 0 433 0 475 0 600 0
LayerCount: 2
Fore
SplineSet
600 949.990195527 m 4
 612.79938404 949.990195527 625.598768081 945.111910038 635.355339059 935.355339059 c 4
 645.111910038 925.598768081 649.990195527 912.79938404 649.990195527 900 c 4
 649.990195527 887.20061596 645.111910038 874.401231919 635.355339059 864.644660941 c 4
 628.118068738 857.407390619 619.206509339 852.854366731 609.862622068 850.985589277 c 6
 185.638399418 766.140744747 l 5
 640.718970414 129.027945351 l 6
 646.899787156 120.374801913 649.990195527 110.187400957 649.990195527 100 c 4
 649.990195527 87.2006159596 645.111910038 74.4012319191 635.355339059 64.6446609407 c 4
 625.598768081 54.8880899622 612.79938404 50.009804473 600 50.009804473 c 4
 584.106901729 50.009804473 568.147842741 58.5585162315 559.281029586 70.9720546485 c 6
 59.2810295855 770.972054649 l 6
 53.1002128438 779.625198087 50.009804473 789.812599043 50.009804473 800 c 4
 50.009804473 812.79938404 54.8880899622 825.598768081 64.6446609407 835.355339059 c 4
 71.8819312623 842.592609381 80.7934906611 847.145633269 90.1373779322 849.014410723 c 6
 590.137377932 949.014410723 l 6
 593.389993945 949.664933926 596.694996973 949.990195527 600 949.990195527 c 4
EndSplineSet
EndChar

StartChar: uniE5A6
Encoding: 58790 58790 8
Width: 700
VWidth: 1024
Flags: HW
HStem: 100 0 600 0 700 0 800 0 900 0
VStem: 100 0 225 0 267 0 350 0 433 0 475 0 600 0
LayerCount: 2
Fore
SplineSet
600 949.990195527 m 4
 612.79938404 949.990195527 625.598768081 945.111910038 635.355339059 935.355339059 c 4
 645.111910038 925.598768081 649.990195527 912.79938404 649.990195527 900 c 4
 649.990195527 887.20061596 645.111910038 874.401231919 635.355339059 864.644660941 c 4
 628.118068738 857.407390619 619.206509339 852.854366731 609.862622068 850.985589277 c 6
 166.554671942 762.323999252 l 5
 353.587808309 238.631217425 l 5
 553.853508007 719.268896699 l 6
 556.291130073 725.119189659 559.888181051 730.59885917 564.644660941 735.355339059 c 4
 574.401231919 745.111910038 587.20061596 749.990195527 600 749.990195527 c 4
 612.79938404 749.990195527 625.598768081 745.111910038 635.355339059 735.355339059 c 4
 645.111910038 725.598768081 649.990195527 712.79938404 649.990195527 700 c 4
 649.990195527 693.440514477 648.708961016 686.881028955 646.146491993 680.731103301 c 6
 396.146491993 80.7311033008 l 6
 393.708869927 74.8808103412 390.111818949 69.4011408302 385.355339059 64.6446609407 c 4
 375.598768081 54.8880899622 362.79938404 50.009804473 350 50.009804473 c 4
 337.20061596 50.009804473 324.401231919 54.8880899622 314.644660941 64.6446609407 c 4
 309.242806202 70.0465156789 305.336355673 76.3811234242 302.925309353 83.1320531209 c 6
 52.925309353 783.132053121 l 6
 50.981639433 788.574328897 50.009804473 794.287164449 50.009804473 800 c 4
 50.009804473 812.79938404 54.8880899622 825.598768081 64.6446609407 835.355339059 c 4
 71.8819312623 842.592609381 80.7934906611 847.145633269 90.1373779322 849.014410723 c 6
 590.137377932 949.014410723 l 6
 593.389993945 949.664933926 596.694996973 949.990195527 600 949.990195527 c 4
EndSplineSet
EndChar

StartChar: uniE5A7
Encoding: 58791 58791 9
Width: 700
VWidth: 1024
Flags: HW
HStem: 100 0 600 0 700 0 800 0 900 0
VStem: 100 0 225 0 267 0 350 0 433 0 475 0 600 0
LayerCount: 2
Fore
SplineSet
600 949.990195527 m 4
 612.79938404 949.990195527 625.598768081 945.111910038 635.355339059 935.355339059 c 4
 645.111910038 925.598768081 649.990195527 912.79938404 649.990195527 900 c 4
 649.990195527 887.20061596 645.111910038 874.401231919 635.355339059 864.644660941 c 4
 628.118068738 857.407390619 619.206509339 852.854366731 609.862622068 850.985589277 c 6
 160.671356685 761.1473362 l 5
 270.579478234 300.454611142 l 5
 384.825653168 713.392592831 l 6
 387.051796716 721.438894812 391.324799307 729.035477426 397.644660941 735.355339059 c 4
 407.401231919 745.111910038 420.20061596 749.990195527 433 749.990195527 c 4
 445.79938404 749.990195527 458.598768081 745.111910038 468.355339059 735.355339059 c 4
 474.655693911 729.054984207 478.921805823 721.485777624 481.153674796 713.467086706 c 6
 648.153674796 113.467086706 l 6
 649.37802195 109.068234655 649.990195527 104.534117327 649.990195527 100 c 4
 649.990195527 87.2006159596 645.111910038 74.4012319191 635.355339059 64.6446609407 c 4
 625.598768081 54.8880899622 612.79938404 50.009804473 600 50.009804473 c 4
 587.20061596 50.009804473 574.401231919 54.8880899622 564.644660941 64.6446609407 c 4
 558.344306089 70.9450157927 554.078194177 78.514222376 551.846325204 86.5329132941 c 6
 433.144636755 513.006045446 l 5
 315.174346832 86.6074071689 l 6
 312.948203284 78.5611051882 308.675200693 70.9645225743 302.355339059 64.6446609407 c 4
 292.598768081 54.8880899622 279.79938404 50.009804473 267 50.009804473 c 4
 254.20061596 50.009804473 241.401231919 54.8880899622 231.644660941 64.6446609407 c 4
 224.873680638 71.4156412431 220.452202756 79.6521152461 218.380227294 88.3370423314 c 6
 51.3802272943 788.337042331 l 6
 50.4666120801 792.166567181 50.009804473 796.083283591 50.009804473 800 c 4
 50.009804473 812.79938404 54.8880899622 825.598768081 64.6446609407 835.355339059 c 4
 71.8819312623 842.592609381 80.7934906611 847.145633269 90.1373779322 849.014410723 c 6
 590.137377932 949.014410723 l 6
 593.389993945 949.664933926 596.694996973 949.990195527 600 949.990195527 c 4
EndSplineSet
EndChar

StartChar: uniE5A8
Encoding: 58792 58792 10
Width: 700
VWidth: 1024
Flags: HW
HStem: 100 0 600 0 700 0 800 0 900 0
VStem: 100 0 225 0 267 0 350 0 433 0 475 0 600 0
LayerCount: 2
Fore
SplineSet
600 949.990195527 m 4
 612.79938404 949.990195527 625.598768081 945.111910038 635.355339059 935.355339059 c 4
 645.111910038 925.598768081 649.990195527 912.79938404 649.990195527 900 c 4
 649.990195527 887.20061596 645.111910038 874.401231919 635.355339059 864.644660941 c 4
 628.118068738 857.407390619 619.206509339 852.854366731 609.862622068 850.985589277 c 6
 157.826084807 760.578281825 l 5
 228.775451835 363.261826467 l 5
 301.065797138 710.25548392 l 6
 302.982599284 719.456134222 307.508887218 728.219565337 314.644660941 735.355339059 c 4
 324.401231919 745.111910038 337.20061596 749.990195527 350 749.990195527 c 4
 362.79938404 749.990195527 375.598768081 745.111910038 385.355339059 735.355339059 c 4
 392.491112782 728.219565337 397.017400716 719.456134222 398.934202862 710.25548392 c 6
 475 345.139657659 l 5
 551.065797138 710.25548392 l 6
 552.982599284 719.456134222 557.508887218 728.219565337 564.644660941 735.355339059 c 4
 574.401231919 745.111910038 587.20061596 749.990195527 600 749.990195527 c 4
 612.79938404 749.990195527 625.598768081 745.111910038 635.355339059 735.355339059 c 4
 645.111910038 725.598768081 649.990195527 712.79938404 649.990195527 700 c 4
 649.990195527 696.561846304 649.638197972 693.123692607 648.934202862 689.74451608 c 6
 523.934202862 89.7445160803 l 6
 522.017400716 80.5438657783 517.491112782 71.7804346631 510.355339059 64.6446609407 c 4
 500.598768081 54.8880899622 487.79938404 50.009804473 475 50.009804473 c 4
 462.20061596 50.009804473 449.401231919 54.8880899622 439.644660941 64.6446609407 c 4
 432.508887218 71.7804346631 427.982599284 80.5438657783 426.065797138 89.7445160803 c 6
 350 454.860342341 l 5
 273.934202862 89.7445160803 l 6
 272.017400716 80.5438657783 267.491112782 71.7804346631 260.355339059 64.6446609407 c 4
 250.598768081 54.8880899622 237.79938404 50.009804473 225 50.009804473 c 4
 212.20061596 50.009804473 199.401231919 54.8880899622 189.644660941 64.6446609407 c 4
 182.144628714 72.1446931678 177.527293877 81.4427975443 175.792656432 91.1567672378 c 6
 50.792656432 791.156767238 l 6
 50.270755126 794.079414552 50.009804473 797.039707276 50.009804473 800 c 4
 50.009804473 812.79938404 54.8880899622 825.598768081 64.6446609407 835.355339059 c 4
 71.8819312623 842.592609381 80.7934906611 847.145633269 90.1373779322 849.014410723 c 6
 590.137377932 949.014410723 l 6
 593.389993945 949.664933926 596.694996973 949.990195527 600 949.990195527 c 4
EndSplineSet
EndChar

StartChar: uniE5A9
Encoding: 58793 58793 11
Width: 700
VWidth: 1024
Flags: HW
HStem: 100 0 600 0 700 0 800 0 900 0
VStem: 100 0 225 0 267 0 350 0 433 0 475 0 600 0
LayerCount: 2
Fore
SplineSet
50.009804473 900 m 4
 50.009804473 912.79938404 54.8880899622 925.598768081 64.6446609407 935.355339059 c 4
 74.4012319191 945.111910038 87.2006159596 949.990195527 100 949.990195527 c 4
 103.305003027 949.990195527 106.610006055 949.664933926 109.862622068 949.014410723 c 6
 609.862622068 849.014410723 l 6
 619.206509339 847.145633269 628.118068738 842.592609381 635.355339059 835.355339059 c 4
 645.111910038 825.598768081 649.990195527 812.79938404 649.990195527 800 c 4
 649.990195527 787.20061596 645.111910038 774.401231919 635.355339059 764.644660941 c 4
 628.118068738 757.407390619 619.206509339 752.854366731 609.862622068 750.985589277 c 6
 109.862622068 650.985589277 l 6
 106.610006055 650.335066074 103.305003027 650.009804473 100 650.009804473 c 4
 87.2006159596 650.009804473 74.4012319191 654.888089962 64.6446609407 664.644660941 c 4
 54.8880899622 674.401231919 50.009804473 687.20061596 50.009804473 700 c 4
 50.009804473 712.79938404 54.8880899622 725.598768081 64.6446609407 735.355339059 c 4
 71.8819312623 742.592609381 80.7934906611 747.145633269 90.1373779322 749.014410723 c 6
 345.065324317 800 l 5
 90.1373779322 850.985589277 l 6
 80.7934906611 852.854366731 71.8819312623 857.407390619 64.6446609407 864.644660941 c 4
 54.8880899622 874.401231919 50.009804473 887.20061596 50.009804473 900 c 4
EndSplineSet
EndChar

StartChar: uniE5AA
Encoding: 58794 58794 12
Width: 700
VWidth: 1024
Flags: HW
HStem: 100 0 600 0 700 0 800 0 900 0
VStem: 100 0 225 0 267 0 350 0 433 0 475 0 600 0
LayerCount: 2
Fore
SplineSet
50.009804473 900 m 4
 50.009804473 912.79938404 54.8880899622 925.598768081 64.6446609407 935.355339059 c 4
 74.4012319191 945.111910038 87.2006159596 949.990195527 100 949.990195527 c 4
 103.305003027 949.990195527 106.610006055 949.664933926 109.862622068 949.014410723 c 6
 609.862622068 849.014410723 l 6
 619.206509339 847.145633269 628.118068738 842.592609381 635.355339059 835.355339059 c 4
 645.111910038 825.598768081 649.990195527 812.79938404 649.990195527 800 c 4
 649.990195527 787.20061596 645.111910038 774.401231919 635.355339059 764.644660941 c 4
 628.118068738 757.407390619 619.206509339 752.854366731 609.862622068 750.985589277 c 6
 192.209854192 667.455035702 l 5
 638.444817729 131.973079458 l 6
 646.141736261 122.736777219 649.990195527 111.36838861 649.990195527 100 c 4
 649.990195527 87.2006159596 645.111910038 74.4012319191 635.355339059 64.6446609407 c 4
 625.598768081 54.8880899622 612.79938404 50.009804473 600 50.009804473 c 4
 585.535915875 50.009804473 570.861410108 56.8594471382 561.555182271 68.0269205425 c 6
 61.555182271 668.026920542 l 6
 53.858263739 677.263222781 50.009804473 688.63161139 50.009804473 700 c 4
 50.009804473 712.79938404 54.8880899622 725.598768081 64.6446609407 735.355339059 c 4
 71.8819312623 742.592609381 80.7934906611 747.145633269 90.1373779322 749.014410723 c 6
 345.065324317 800 l 5
 90.1373779322 850.985589277 l 6
 80.7934906611 852.854366731 71.8819312623 857.407390619 64.6446609407 864.644660941 c 4
 54.8880899622 874.401231919 50.009804473 887.20061596 50.009804473 900 c 4
EndSplineSet
EndChar

StartChar: uniE5AB
Encoding: 58795 58795 13
Width: 700
VWidth: 1024
Flags: HW
HStem: 100 0 600 0 700 0 800 0 900 0
VStem: 100 0 225 0 267 0 350 0 433 0 475 0 600 0
LayerCount: 2
Fore
SplineSet
50.009804473 900 m 4
 50.009804473 912.79938404 54.8880899622 925.598768081 64.6446609407 935.355339059 c 4
 74.4012319191 945.111910038 87.2006159596 949.990195527 100 949.990195527 c 4
 103.305003027 949.990195527 106.610006055 949.664933926 109.862622068 949.014410723 c 6
 609.862622068 849.014410723 l 6
 619.206509339 847.145633269 628.118068738 842.592609381 635.355339059 835.355339059 c 4
 645.111910038 825.598768081 649.990195527 812.79938404 649.990195527 800 c 4
 649.990195527 787.20061596 645.111910038 774.401231919 635.355339059 764.644660941 c 4
 628.118068738 757.407390619 619.206509339 752.854366731 609.862622068 750.985589277 c 6
 169.618235623 662.936711988 l 5
 354.135349646 220.095638333 l 5
 555.275385938 622.375710916 l 6
 557.617292392 627.059523825 560.74038406 631.451062178 564.644660941 635.355339059 c 4
 574.401231919 645.111910038 587.20061596 649.990195527 600 649.990195527 c 4
 612.79938404 649.990195527 625.598768081 645.111910038 635.355339059 635.355339059 c 4
 645.111910038 625.598768081 649.990195527 612.79938404 649.990195527 600 c 4
 649.990195527 592.322532185 648.235001705 584.64506437 644.724614062 577.624289084 c 6
 394.724614062 77.6242890837 l 6
 392.382707608 72.9404761752 389.25961594 68.5489378217 385.355339059 64.6446609407 c 4
 375.598768081 54.8880899622 362.79938404 50.009804473 350 50.009804473 c 4
 337.20061596 50.009804473 324.401231919 54.8880899622 314.644660941 64.6446609407 c 4
 309.888181051 69.4011408302 306.291130073 74.8808103412 303.853508007 80.7311033008 c 6
 53.8535080066 680.731103301 l 6
 51.2910389842 686.881028955 50.009804473 693.440514477 50.009804473 700 c 4
 50.009804473 712.79938404 54.8880899622 725.598768081 64.6446609407 735.355339059 c 4
 71.8819312623 742.592609381 80.7934906611 747.145633269 90.1373779322 749.014410723 c 6
 345.065324317 800 l 5
 90.1373779322 850.985589277 l 6
 80.7934906611 852.854366731 71.8819312623 857.407390619 64.6446609407 864.644660941 c 4
 54.8880899622 874.401231919 50.009804473 887.20061596 50.009804473 900 c 4
EndSplineSet
EndChar

StartChar: uniE5AC
Encoding: 58796 58796 14
Width: 700
VWidth: 1024
Flags: HW
HStem: 100 0 500 0 600 0 700 0 800 0 900 0
VStem: 100 0 225 0 267 0 350 0 433 0 475 0 600 0
LayerCount: 2
Fore
SplineSet
50.009804473 900 m 4
 50.009804473 912.79938404 54.8880899622 925.598768081 64.6446609407 935.355339059 c 4
 74.4012319191 945.111910038 87.2006159596 949.990195527 100 949.990195527 c 4
 103.305003027 949.990195527 106.610006055 949.664933926 109.862622068 949.014410723 c 6
 609.862622068 849.014410723 l 6
 619.206509339 847.145633269 628.118068738 842.592609381 635.355339059 835.355339059 c 4
 645.111910038 825.598768081 649.990195527 812.79938404 649.990195527 800 c 4
 649.990195527 787.20061596 645.111910038 774.401231919 635.355339059 764.644660941 c 4
 628.118068738 757.407390619 619.206509339 752.854366731 609.862622068 750.985589277 c 6
 162.608188388 661.534702541 l 5
 271.205266048 271.365561248 l 5
 385.560682847 615.809587752 l 6
 387.933410897 622.956358984 391.961403594 629.672081713 397.644660941 635.355339059 c 4
 407.401231919 645.111910038 420.20061596 649.990195527 433 649.990195527 c 4
 445.79938404 649.990195527 458.598768081 645.111910038 468.355339059 635.355339059 c 4
 474.016026846 629.694651272 478.034570775 623.009682149 480.410970845 615.894711879 c 6
 647.410970845 115.894711879 l 6
 649.130453966 110.746558821 649.990195527 105.37327941 649.990195527 100 c 4
 649.990195527 87.2006159596 645.111910038 74.4012319191 635.355339059 64.6446609407 c 4
 625.598768081 54.8880899622 612.79938404 50.009804473 600 50.009804473 c 4
 587.20061596 50.009804473 574.401231919 54.8880899622 564.644660941 64.6446609407 c 4
 558.983973154 70.3053487275 554.965429225 76.990317851 552.589029155 84.1052881214 c 6
 433.142417964 441.729872525 l 5
 314.439317153 84.1904122482 l 6
 312.066589103 77.043641016 308.038596406 70.3279182871 302.355339059 64.6446609407 c 4
 292.598768081 54.8880899622 279.79938404 50.009804473 267 50.009804473 c 4
 254.20061596 50.009804473 241.401231919 54.8880899622 231.644660941 64.6446609407 c 4
 225.344306089 70.9450157927 221.078194177 78.514222376 218.846325204 86.5329132941 c 6
 51.8463252043 686.532913294 l 6
 50.6219780501 690.931765345 50.009804473 695.465882673 50.009804473 700 c 4
 50.009804473 712.79938404 54.8880899622 725.598768081 64.6446609407 735.355339059 c 4
 71.8819312623 742.592609381 80.7934906611 747.145633269 90.1373779322 749.014410723 c 6
 345.065324317 800 l 5
 90.1373779322 850.985589277 l 6
 80.7934906611 852.854366731 71.8819312623 857.407390619 64.6446609407 864.644660941 c 4
 54.8880899622 874.401231919 50.009804473 887.20061596 50.009804473 900 c 4
EndSplineSet
EndChar

StartChar: uniE5AD
Encoding: 58797 58797 15
Width: 700
VWidth: 1024
Flags: HW
HStem: 100 0 500 0 600 0 700 0 800 0 900 0
VStem: 100 0 225 0 267 0 350 0 433 0 475 0 600 0
LayerCount: 2
Fore
SplineSet
50.009804473 900 m 4
 50.009804473 912.79938404 54.8880899622 925.598768081 64.6446609407 935.355339059 c 4
 74.4012319191 945.111910038 87.2006159596 949.990195527 100 949.990195527 c 4
 103.305003027 949.990195527 106.610006055 949.664933926 109.862622068 949.014410723 c 6
 609.862622068 849.014410723 l 6
 619.206509339 847.145633269 628.118068738 842.592609381 635.355339059 835.355339059 c 4
 645.111910038 825.598768081 649.990195527 812.79938404 649.990195527 800 c 4
 649.990195527 787.20061596 645.111910038 774.401231919 635.355339059 764.644660941 c 4
 628.118068738 757.407390619 619.206509339 752.854366731 609.862622068 750.985589277 c 6
 159.225318559 660.858128575 l 5
 229.430183064 323.87477895 l 5
 301.508274138 612.187143244 l 6
 303.631251615 620.679053154 308.010047216 628.720725335 314.644660941 635.355339059 c 4
 324.401231919 645.111910038 337.20061596 649.990195527 350 649.990195527 c 4
 362.79938404 649.990195527 375.598768081 645.111910038 385.355339059 635.355339059 c 4
 391.989952784 628.720725335 396.368748385 620.679053154 398.491725862 612.187143244 c 6
 475 306.154046693 l 5
 551.508274138 612.187143244 l 6
 553.631251615 620.679053154 558.010047216 628.720725335 564.644660941 635.355339059 c 4
 574.401231919 645.111910038 587.20061596 649.990195527 600 649.990195527 c 4
 612.79938404 649.990195527 625.598768081 645.111910038 635.355339059 635.355339059 c 4
 645.111910038 625.598768081 649.990195527 612.79938404 649.990195527 600 c 4
 649.990195527 595.904387931 649.490705639 591.808775862 648.491725862 587.812856756 c 6
 523.491725862 87.8128567562 l 6
 521.368748385 79.3209468464 516.989952784 71.2792746652 510.355339059 64.6446609407 c 4
 500.598768081 54.8880899622 487.79938404 50.009804473 475 50.009804473 c 4
 462.20061596 50.009804473 449.401231919 54.8880899622 439.644660941 64.6446609407 c 4
 433.010047216 71.2792746652 428.631251615 79.3209468464 426.508274138 87.8128567562 c 6
 350 393.845953307 l 5
 273.491725862 87.8128567562 l 6
 271.368748385 79.3209468464 266.989952784 71.2792746652 260.355339059 64.6446609407 c 4
 250.598768081 54.8880899622 237.79938404 50.009804473 225 50.009804473 c 4
 212.20061596 50.009804473 199.401231919 54.8880899622 189.644660941 64.6446609407 c 4
 182.508887218 71.7804346631 177.982599284 80.5438657783 176.065797138 89.7445160803 c 6
 51.0657971377 689.74451608 l 6
 50.3618020279 693.123692607 50.009804473 696.561846304 50.009804473 700 c 4
 50.009804473 712.79938404 54.8880899622 725.598768081 64.6446609407 735.355339059 c 4
 71.8819312623 742.592609381 80.7934906611 747.145633269 90.1373779322 749.014410723 c 6
 345.065324317 800 l 5
 90.1373779322 850.985589277 l 6
 80.7934906611 852.854366731 71.8819312623 857.407390619 64.6446609407 864.644660941 c 4
 54.8880899622 874.401231919 50.009804473 887.20061596 50.009804473 900 c 4
EndSplineSet
EndChar

StartChar: uniE5AE
Encoding: 58798 58798 16
Width: 700
VWidth: 1024
Flags: HW
HStem: 100 0 500 0 600 0 700 0 800 0 900 0
VStem: 100 0 225 0 267 0 350 0 433 0 475 0 600 0
LayerCount: 2
Fore
SplineSet
600 949.990195527 m 0
 612.79938404 949.990195527 625.598768081 945.111910038 635.355339059 935.355339059 c 0
 645.111910038 925.598768081 649.990195527 912.79938404 649.990195527 900 c 0
 649.990195527 887.20061596 645.111910038 874.401231919 635.355339059 864.644660941 c 0
 628.118068738 857.407390619 619.206509339 852.854366731 609.862622068 850.985589277 c 2
 354.934675683 800 l 1
 609.862622068 749.014410723 l 2
 619.206509339 747.145633269 628.118068738 742.592609381 635.355339059 735.355339059 c 0
 645.111910038 725.598768081 649.990195527 712.79938404 649.990195527 700 c 0
 649.990195527 687.20061596 645.111910038 674.401231919 635.355339059 664.644660941 c 0
 628.118068738 657.407390619 619.206509339 652.854366731 609.862622068 650.985589277 c 2
 109.862622068 550.985589277 l 2
 106.610006055 550.335066074 103.305003027 550.009804473 100 550.009804473 c 0
 87.2006159596 550.009804473 74.4012319191 554.888089962 64.6446609407 564.644660941 c 0
 54.8880899622 574.401231919 50.009804473 587.20061596 50.009804473 600 c 0
 50.009804473 612.79938404 54.8880899622 625.598768081 64.6446609407 635.355339059 c 0
 71.8819312623 642.592609381 80.7934906611 647.145633269 90.1373779322 649.014410723 c 2
 345.065324317 700 l 1
 90.1373779322 750.985589277 l 2
 80.7934906611 752.854366731 71.8819312623 757.407390619 64.6446609407 764.644660941 c 0
 54.8880899622 774.401231919 50.009804473 787.20061596 50.009804473 800 c 0
 50.009804473 812.79938404 54.8880899622 825.598768081 64.6446609407 835.355339059 c 0
 71.8819312623 842.592609381 80.7934906611 847.145633269 90.1373779322 849.014410723 c 2
 590.137377932 949.014410723 l 2
 593.389993945 949.664933926 596.694996973 949.990195527 600 949.990195527 c 0
EndSplineSet
EndChar

StartChar: uniE5AF
Encoding: 58799 58799 17
Width: 700
VWidth: 1024
Flags: HW
HStem: 100 0 500 0 600 0 700 0 800 0 900 0
VStem: 100 0 225 0 267 0 350 0 433 0 475 0 600 0
LayerCount: 2
Fore
SplineSet
600 949.990195527 m 4
 612.79938404 949.990195527 625.598768081 945.111910038 635.355339059 935.355339059 c 4
 645.111910038 925.598768081 649.990195527 912.79938404 649.990195527 900 c 4
 649.990195527 887.20061596 645.111910038 874.401231919 635.355339059 864.644660941 c 4
 628.118068738 857.407390619 619.206509339 852.854366731 609.862622068 850.985589277 c 6
 354.934675683 800 l 5
 609.862622068 749.014410723 l 6
 619.206509339 747.145633269 628.118068738 742.592609381 635.355339059 735.355339059 c 4
 645.111910038 725.598768081 649.990195527 712.79938404 649.990195527 700 c 4
 649.990195527 687.20061596 645.111910038 674.401231919 635.355339059 664.644660941 c 4
 628.118068738 657.407390619 619.206509339 652.854366731 609.862622068 650.985589277 c 6
 201.414677713 569.296000406 l 5
 635.355339059 135.355339059 l 6
 645.111910038 125.598768081 649.990195527 112.79938404 649.990195527 100 c 4
 649.990195527 87.2006159596 645.111910038 74.4012319191 635.355339059 64.6446609407 c 4
 625.598768081 54.8880899622 612.79938404 50.009804473 600 50.009804473 c 4
 587.20061596 50.009804473 574.401231919 54.8880899622 564.644660941 64.6446609407 c 6
 64.6446609407 564.644660941 l 6
 54.8880899622 574.401231919 50.009804473 587.20061596 50.009804473 600 c 4
 50.009804473 612.79938404 54.8880899622 625.598768081 64.6446609407 635.355339059 c 4
 71.8819312623 642.592609381 80.7934906611 647.145633269 90.1373779322 649.014410723 c 6
 345.065324317 700 l 5
 90.1373779322 750.985589277 l 6
 80.7934906611 752.854366731 71.8819312623 757.407390619 64.6446609407 764.644660941 c 4
 54.8880899622 774.401231919 50.009804473 787.20061596 50.009804473 800 c 4
 50.009804473 812.79938404 54.8880899622 825.598768081 64.6446609407 835.355339059 c 4
 71.8819312623 842.592609381 80.7934906611 847.145633269 90.1373779322 849.014410723 c 6
 590.137377932 949.014410723 l 6
 593.389993945 949.664933926 596.694996973 949.990195527 600 949.990195527 c 4
EndSplineSet
EndChar

StartChar: uniE5B0
Encoding: 58800 58800 18
Width: 700
VWidth: 1024
Flags: HW
HStem: 100 0 500 0 600 0 700 0 800 0 900 0
VStem: 100 0 225 0 267 0 350 0 433 0 475 0 600 0
LayerCount: 2
Fore
SplineSet
600 949.990195527 m 4
 612.79938404 949.990195527 625.598768081 945.111910038 635.355339059 935.355339059 c 4
 645.111910038 925.598768081 649.990195527 912.79938404 649.990195527 900 c 4
 649.990195527 887.20061596 645.111910038 874.401231919 635.355339059 864.644660941 c 4
 628.118068738 857.407390619 619.206509339 852.854366731 609.862622068 850.985589277 c 6
 354.934675683 800 l 5
 609.862622068 749.014410723 l 6
 619.206509339 747.145633269 628.118068738 742.592609381 635.355339059 735.355339059 c 4
 645.111910038 725.598768081 649.990195527 712.79938404 649.990195527 700 c 4
 649.990195527 687.20061596 645.111910038 674.401231919 635.355339059 664.644660941 c 4
 628.118068738 657.407390619 619.206509339 652.854366731 609.862622068 650.985589277 c 6
 174.005397353 563.814144334 l 5
 354.852331311 202.12027642 l 5
 557.577991409 526.481332577 l 6
 559.548684012 529.634440741 561.904240522 532.614918641 564.644660941 535.355339059 c 4
 574.401231919 545.111910038 587.20061596 549.990195527 600 549.990195527 c 4
 612.79938404 549.990195527 625.598768081 545.111910038 635.355339059 535.355339059 c 4
 645.111910038 525.598768081 649.990195527 512.79938404 649.990195527 500 c 4
 649.990195527 490.795700077 647.467466548 481.591400155 642.422008591 473.518667423 c 6
 392.422008591 73.5186674227 l 6
 390.451315988 70.3655592586 388.095759478 67.3850813591 385.355339059 64.6446609407 c 4
 375.598768081 54.8880899622 362.79938404 50.009804473 350 50.009804473 c 4
 337.20061596 50.009804473 324.401231919 54.8880899622 314.644660941 64.6446609407 c 4
 310.74038406 68.5489378217 307.617292392 72.9404761752 305.275385938 77.6242890837 c 6
 55.2753859379 577.624289084 l 6
 51.7649982946 584.64506437 50.009804473 592.322532185 50.009804473 600 c 4
 50.009804473 612.79938404 54.8880899622 625.598768081 64.6446609407 635.355339059 c 4
 71.8819312623 642.592609381 80.7934906611 647.145633269 90.1373779322 649.014410723 c 6
 345.065324317 700 l 5
 90.1373779322 750.985589277 l 6
 80.7934906611 752.854366731 71.8819312623 757.407390619 64.6446609407 764.644660941 c 4
 54.8880899622 774.401231919 50.009804473 787.20061596 50.009804473 800 c 4
 50.009804473 812.79938404 54.8880899622 825.598768081 64.6446609407 835.355339059 c 4
 71.8819312623 842.592609381 80.7934906611 847.145633269 90.1373779322 849.014410723 c 6
 590.137377932 949.014410723 l 6
 593.389993945 949.664933926 596.694996973 949.990195527 600 949.990195527 c 4
EndSplineSet
EndChar

StartChar: uniE5B1
Encoding: 58801 58801 19
Width: 700
VWidth: 1024
Flags: HW
HStem: 100 0 500 0 600 0 700 0 800 0 900 0
VStem: 100 0 225 0 267 0 350 0 433 0 475 0 600 0
LayerCount: 2
Fore
SplineSet
600 949.990195527 m 4
 612.79938404 949.990195527 625.598768081 945.111910038 635.355339059 935.355339059 c 4
 645.111910038 925.598768081 649.990195527 912.79938404 649.990195527 900 c 4
 649.990195527 887.20061596 645.111910038 874.401231919 635.355339059 864.644660941 c 4
 628.118068738 857.407390619 619.206509339 852.854366731 609.862622068 850.985589277 c 6
 354.934675683 800 l 5
 609.862622068 749.014410723 l 6
 619.206509339 747.145633269 628.118068738 742.592609381 635.355339059 735.355339059 c 4
 645.111910038 725.598768081 649.990195527 712.79938404 649.990195527 700 c 4
 649.990195527 687.20061596 645.111910038 674.401231919 635.355339059 664.644660941 c 4
 628.118068738 657.407390619 619.206509339 652.854366731 609.862622068 650.985589277 c 6
 165.381928148 562.089450493 l 5
 272.066636421 242.674156262 l 5
 386.82640217 519.203712282 l 6
 389.264433255 525.078485981 392.870519512 530.58119763 397.644660941 535.355339059 c 4
 407.401231919 545.111910038 420.20061596 549.990195527 433 549.990195527 c 4
 445.79938404 549.990195527 458.598768081 545.111910038 468.355339059 535.355339059 c 4
 473.102997147 530.607680972 476.6955231 525.139513362 479.132916919 519.301444334 c 6
 646.132916919 119.301444334 l 6
 648.704435991 113.142117216 649.990195527 106.571058608 649.990195527 100 c 4
 649.990195527 87.2006159596 645.111910038 74.4012319191 635.355339059 64.6446609407 c 4
 625.598768081 54.8880899622 612.79938404 50.009804473 600 50.009804473 c 4
 587.20061596 50.009804473 574.401231919 54.8880899622 564.644660941 64.6446609407 c 4
 559.897002853 69.3923190284 556.3044769 74.8604866383 553.867083081 80.6985556656 c 6
 433.138598526 369.868578551 l 5
 313.17359783 80.7962877179 l 6
 310.735566745 74.921514019 307.129480488 69.4188023696 302.355339059 64.6446609407 c 4
 292.598768081 54.8880899622 279.79938404 50.009804473 267 50.009804473 c 4
 254.20061596 50.009804473 241.401231919 54.8880899622 231.644660941 64.6446609407 c 4
 225.983973154 70.3053487275 221.965429225 76.990317851 219.589029155 84.1052881214 c 6
 52.589029155 584.105288121 l 6
 50.8695460336 589.253441179 50.009804473 594.62672059 50.009804473 600 c 4
 50.009804473 612.79938404 54.8880899622 625.598768081 64.6446609407 635.355339059 c 4
 71.8819312623 642.592609381 80.7934906611 647.145633269 90.1373779322 649.014410723 c 6
 345.065324317 700 l 5
 90.1373779322 750.985589277 l 6
 80.7934906611 752.854366731 71.8819312623 757.407390619 64.6446609407 764.644660941 c 4
 54.8880899622 774.401231919 50.009804473 787.20061596 50.009804473 800 c 4
 50.009804473 812.79938404 54.8880899622 825.598768081 64.6446609407 835.355339059 c 4
 71.8819312623 842.592609381 80.7934906611 847.145633269 90.1373779322 849.014410723 c 6
 590.137377932 949.014410723 l 6
 593.389993945 949.664933926 596.694996973 949.990195527 600 949.990195527 c 4
EndSplineSet
EndChar

StartChar: uniE5B2
Encoding: 58802 58802 20
Width: 700
VWidth: 1024
Flags: HW
HStem: 100 0 500 0 600 0 700 0 800 0 900 0
VStem: 100 0 225 0 267 0 350 0 433 0 475 0 600 0
LayerCount: 2
Fore
SplineSet
600 949.990195527 m 4
 612.79938404 949.990195527 625.598768081 945.111910038 635.355339059 935.355339059 c 4
 645.111910038 925.598768081 649.990195527 912.79938404 649.990195527 900 c 4
 649.990195527 887.20061596 645.111910038 874.401231919 635.355339059 864.644660941 c 4
 628.118068738 857.407390619 619.206509339 852.854366731 609.862622068 850.985589277 c 6
 354.934675683 800 l 5
 609.862622068 749.014410723 l 6
 619.206509339 747.145633269 628.118068738 742.592609381 635.355339059 735.355339059 c 4
 645.111910038 725.598768081 649.990195527 712.79938404 649.990195527 700 c 4
 649.990195527 687.20061596 645.111910038 674.401231919 635.355339059 664.644660941 c 4
 628.118068738 657.407390619 619.206509339 652.854366731 609.862622068 650.985589277 c 6
 161.224043293 561.257873522 l 5
 230.348967724 284.758175795 l 5
 302.290569152 514.971300364 l 6
 304.621677422 522.430846829 308.739708018 529.450386137 314.644660941 535.355339059 c 4
 324.401231919 545.111910038 337.20061596 549.990195527 350 549.990195527 c 4
 362.79938404 549.990195527 375.598768081 545.111910038 385.355339059 535.355339059 c 4
 391.260291982 529.450386137 395.378322578 522.430846829 397.709430848 514.971300364 c 6
 475 267.641479077 l 5
 552.290569152 514.971300364 l 6
 554.621677422 522.430846829 558.739708018 529.450386137 564.644660941 535.355339059 c 4
 574.401231919 545.111910038 587.20061596 549.990195527 600 549.990195527 c 4
 612.79938404 549.990195527 625.598768081 545.111910038 635.355339059 535.355339059 c 4
 645.111910038 525.598768081 649.990195527 512.79938404 649.990195527 500 c 4
 649.990195527 494.947165476 649.229940634 489.894330951 647.709430848 485.028699636 c 6
 522.709430848 85.0286996359 l 6
 520.378322578 77.5691531713 516.260291982 70.5496138629 510.355339059 64.6446609407 c 4
 500.598768081 54.8880899622 487.79938404 50.009804473 475 50.009804473 c 4
 462.20061596 50.009804473 449.401231919 54.8880899622 439.644660941 64.6446609407 c 4
 433.739708018 70.5496138629 429.621677422 77.5691531713 427.290569152 85.0286996359 c 6
 350 332.358520923 l 5
 272.709430848 85.0286996359 l 6
 270.378322578 77.5691531713 266.260291982 70.5496138629 260.355339059 64.6446609407 c 4
 250.598768081 54.8880899622 237.79938404 50.009804473 225 50.009804473 c 4
 212.20061596 50.009804473 199.401231919 54.8880899622 189.644660941 64.6446609407 c 4
 183.010047216 71.2792746652 178.631251615 79.3209468464 176.508274138 87.8128567562 c 6
 51.5082741377 587.812856756 l 6
 50.5092943612 591.808775862 50.009804473 595.904387931 50.009804473 600 c 4
 50.009804473 612.79938404 54.8880899622 625.598768081 64.6446609407 635.355339059 c 4
 71.8819312623 642.592609381 80.7934906611 647.145633269 90.1373779322 649.014410723 c 6
 345.065324317 700 l 5
 90.1373779322 750.985589277 l 6
 80.7934906611 752.854366731 71.8819312623 757.407390619 64.6446609407 764.644660941 c 4
 54.8880899622 774.401231919 50.009804473 787.20061596 50.009804473 800 c 4
 50.009804473 812.79938404 54.8880899622 825.598768081 64.6446609407 835.355339059 c 4
 71.8819312623 842.592609381 80.7934906611 847.145633269 90.1373779322 849.014410723 c 6
 590.137377932 949.014410723 l 6
 593.389993945 949.664933926 596.694996973 949.990195527 600 949.990195527 c 4
EndSplineSet
EndChar

StartChar: uniE5B3
Encoding: 58803 58803 21
Width: 700
VWidth: 1024
Flags: HW
HStem: 100 0 367 0 500 0 633 0 900 0
VStem: 101 0 226 0 268 0 351 0 434 0 476 0 601 0
LayerCount: 2
Fore
SplineSet
214.477539062 440.396484375 m 0
 214.477539062 363.205078125 292.15625 293.689453125 371.150390625 293.689453125 c 0
 402.637695312 293.689453125 428.681640625 306.227539062 450.276367188 327.822265625 c 0
 474.46484375 352.010742188 491.948242188 388.509765625 497.1953125 425.788085938 c 0
 498.340820312 433.919921875 498.90625 442.000976562 498.90625 449.9296875 c 0
 498.90625 471.028320312 494.90234375 491.052734375 487.155273438 508.096679688 c 0
 477.17578125 530.05078125 462.626953125 550.057617188 444.291992188 568.392578125 c 0
 422.200195312 590.484375 394.387695312 610.06640625 364 627 c 1
 331.60546875 607.436523438 301.291992188 585.147460938 276.610351562 560.465820312 c 0
 254.9921875 538.846679688 237.651367188 515.501953125 225.916992188 490.669921875 c 0
 218.149414062 474.232421875 214.477539062 457.254882812 214.477539062 440.396484375 c 0
57.396484375 769.739257812 m 0
 57.396484375 782.5390625 62.2744140625 795.338867188 72.03125 805.094726562 c 0
 81.787109375 814.8515625 94.5869140625 819.729492188 107.38671875 819.729492188 c 0
 115.484375 819.729492188 123.583007812 817.77734375 130.91015625 813.87109375 c 0
 134.764648438 812.657226562 148.094726562 808.962890625 164.465820312 804.791992188 c 0
 207.752929688 793.763671875 278.236328125 775.943359375 350.173828125 744.991210938 c 0
 353.954101562 743.365234375 357.741210938 741.703125 361.532226562 740.001953125 c 0
 371.088867188 744.860351562 380.610351562 749.481445312 390.041015625 753.881835938 c 0
 478.573242188 795.197265625 543.506835938 811.690429688 590.073242188 826 c 0
 596.46484375 828.802734375 603.325195312 830.204101562 610.186523438 830.204101562 c 0
 622.985351562 830.204101562 635.78515625 825.326171875 645.541015625 815.569335938 c 0
 655.297851562 805.813476562 660.176757812 793.013671875 660.176757812 780.213867188 c 0
 660.176757812 767.415039062 655.297851562 754.615234375 645.541015625 744.859375 c 0
 643.159179688 742.4765625 640.594726562 740.384765625 637.893554688 738.583984375 c 0
 631.0546875 734.025390625 629.002929688 733.759765625 626.732421875 732.884765625 c 0
 618.893554688 729.861328125 613.76171875 728.645507812 604.250976562 725.87109375 c 0
 576.794921875 717.86328125 525.397460938 702.815429688 468.271484375 679.071289062 c 1
 513.645507812 645.6640625 553.651367188 603.508789062 578.185546875 549.533203125 c 0
 592.509765625 518.01953125 598.91796875 484.03515625 598.91796875 450.25390625 c 0
 598.91796875 437.341796875 597.982421875 424.458984375 596.193359375 411.755859375 c 0
 588.120117188 354.401367188 562.7421875 298.866210938 520.987304688 257.111328125 c 0
 483.271484375 219.395507812 431.314453125 193.716796875 370.838867188 193.716796875 c 0
 367.4453125 193.716796875 364.026367188 193.797851562 360.580078125 193.961914062 c 0
 293.14453125 197.172851562 232.346679688 227.266601562 187.883789062 271.729492188 c 0
 144.017578125 315.595703125 114.54296875 376.502929688 114.54296875 441.25390625 c 0
 114.54296875 471.590820312 121.012695312 502.771484375 135.50390625 533.438476562 c 0
 162.77734375 591.157226562 206.838867188 637.201171875 255.485351562 674.354492188 c 1
 211.438476562 689.561523438 170.015625 700.18359375 139.65625 707.918945312 c 0
 120.561523438 712.783203125 108.170898438 715.228515625 92.935546875 721.282226562 c 0
 89.2734375 722.737304688 85.3447265625 724.18359375 78.982421875 728.58203125 c 0
 76.5361328125 730.2734375 74.2080078125 732.20703125 72.03125 734.384765625 c 0
 62.2744140625 744.140625 57.396484375 756.940429688 57.396484375 769.739257812 c 0
EndSplineSet
EndChar
